<svg version="1.1" id="Layer_1" xmlns="http://www.w3.org/2000/svg" xmlns:xlink="http://www.w3.org/1999/xlink" x="0px" y="0px"
	 width="100%" viewBox="0 0 1200 867" enable-background="accumulate 0 0 1200 867" xml:space="preserve">
<path fill="#FFC600" opacity="1.000000" stroke="none" 
	d="
M442.141418,87.034500 
	C459.072083,82.339386 475.770294,78.319771 492.632965,75.299301 
	C504.804749,73.119064 517.129272,71.560577 529.404236,69.856270 
	C562.515259,65.259018 595.781738,65.616325 629.023132,66.202354 
	C643.233032,66.452873 657.467834,68.029854 671.653198,69.796249 
	C683.963989,71.329216 696.262329,73.015671 708.442017,75.176933 
	C723.566895,77.860817 738.612610,81.272537 753.437195,85.307785 
	C783.222839,93.415421 812.274170,103.674789 840.586609,116.092545 
	C876.196106,131.710709 909.565430,151.258392 941.473083,173.276688 
	C956.760925,183.826294 971.267212,195.526230 985.344543,207.730011 
	C999.962585,220.402649 1014.509521,233.162735 1027.660156,247.340607 
	C1041.475342,262.235138 1054.846558,277.526245 1067.382324,293.575653 
	C1079.610718,309.231750 1090.890259,325.498077 1101.619995,342.168945 
	C1109.068848,353.742401 1115.791748,365.750397 1122.450439,377.804840 
	C1134.447754,399.523956 1144.627075,422.097137 1153.502319,445.190582 
	C1162.602905,468.870483 1170.111206,493.121674 1176.061646,517.838318 
	C1179.893188,533.753723 1182.870117,549.832581 1185.865356,565.901978 
	C1187.508789,574.718628 1187.981201,583.752747 1189.002686,592.686401 
	C1191.161133,611.565430 1191.977661,630.496887 1192.272217,649.501526 
	C1192.368042,655.674683 1193.163940,661.303284 1189.159790,666.565125 
	C1186.182495,670.477722 1179.366821,673.097534 1174.410645,671.766479 
	C1168.087158,670.068176 1163.210327,664.814331 1163.018677,659.248779 
	C1162.625854,647.829041 1162.879395,636.356506 1161.852661,624.997375 
	C1160.734863,612.632141 1159.885620,600.241638 1158.238647,587.893188 
	C1156.042969,571.432556 1153.332520,555.106079 1150.030396,538.848572 
	C1147.451660,526.152893 1144.292236,513.605042 1140.586426,501.205475 
	C1134.669067,481.406036 1128.073975,461.840088 1120.046875,442.769257 
	C1111.806274,423.191772 1102.424072,404.194000 1092.255005,385.548737 
	C1083.940430,370.303711 1074.946045,355.505035 1065.027588,341.265137 
	C1055.543457,327.648834 1045.641113,314.367767 1035.160645,301.470490 
	C1020.218140,283.081940 1004.008118,265.915497 986.929626,249.577545 
	C975.799866,238.930374 964.060669,228.942520 951.996643,219.294571 
	C937.492310,207.695114 922.583191,196.738708 907.081604,186.549088 
	C879.799011,168.615479 850.997681,153.561447 821.080566,140.510452 
	C791.778625,127.727829 761.489807,117.918777 730.503906,110.395119 
	C713.480957,106.261787 696.200317,103.077820 678.750305,100.890221 
	C665.239075,99.196411 651.766174,97.617905 638.147400,96.838440 
	C622.631592,95.950394 607.099731,94.251122 591.602417,95.178123 
	C574.558533,96.197647 557.491638,96.851692 540.462463,98.735123 
	C520.661926,100.925049 501.026459,103.936501 481.631775,108.158951 
	C454.309753,114.107262 427.546173,122.140518 401.384003,132.162216 
	C378.969025,140.748550 357.207245,150.740677 336.092102,162.069214 
	C311.080811,175.488052 287.135681,190.634567 264.526489,207.881088 
	C250.063644,218.913467 236.142334,230.525726 222.605072,242.684052 
	C211.215912,252.913071 200.284149,263.607727 189.955017,274.808228 
	C171.811798,294.481934 155.257004,315.460419 139.727798,337.352081 
	C119.921974,365.272614 103.855957,395.196808 89.153503,425.911316 
	C81.698158,441.486084 75.674316,457.733948 70.005646,474.081055 
	C63.492897,492.862427 57.861099,511.914764 53.479641,531.277649 
	C50.439068,544.714844 48.023777,558.309326 45.834358,571.947632 
	C43.186314,588.442810 42.115585,605.079346 40.024212,621.614014 
	C39.961895,622.106689 39.975513,622.614685 40.004696,623.112549 
	C40.695793,634.902710 38.517769,646.599426 38.931358,658.397034 
	C39.176060,665.377075 32.778934,671.424805 25.479328,672.022644 
	C18.280018,672.612427 10.320298,667.507935 10.074420,660.341553 
	C9.619251,647.075073 9.521580,633.803467 10.899078,620.547974 
	C11.493463,614.828308 11.250432,609.054810 11.869947,603.278809 
	C13.486901,588.203369 15.314882,573.188965 17.800438,558.215088 
	C20.912121,539.469299 25.110382,521.010986 29.958096,502.664368 
	C35.616394,481.250061 42.590679,460.276245 50.737190,439.690918 
	C57.654652,422.211334 65.329002,405.063995 73.959656,388.360229 
	C90.077393,357.165985 108.548843,327.446655 129.929428,299.566956 
	C142.605881,283.037231 156.230560,267.349182 170.246780,251.916153 
	C183.749161,237.048904 198.369934,223.423462 213.432999,210.342133 
	C240.467529,186.864365 269.391632,165.881332 300.383942,147.758011 
	C313.814850,139.904068 327.324585,132.190750 341.279297,125.408852 
	C372.292999,110.336388 404.479218,98.136261 437.512360,88.207077 
	C438.904785,87.788536 440.538452,88.252090 442.141418,87.034500 
z"/>
<path fill="#F4A6D7" opacity="1.000000" stroke="none" 
	d="
M754.898560,238.024399 
	C729.572571,228.485382 703.803589,221.929779 677.627014,217.213791 
	C666.287842,215.170914 654.705444,214.090057 643.205750,212.774231 
	C621.189636,210.255127 599.150757,210.655106 577.165039,211.275284 
	C563.062439,211.673111 548.945984,213.767517 534.872803,215.794434 
	C507.895111,219.679932 481.679871,226.265869 455.946808,234.998947 
	C441.177155,240.011353 426.864532,246.138260 412.663971,252.620468 
	C388.220795,263.778198 365.332855,277.500641 343.429871,292.950897 
	C332.527222,300.641602 321.993408,308.791870 311.849030,317.498260 
	C303.444611,324.711365 295.394562,332.250153 287.464661,339.962646 
	C262.658386,364.088867 241.438217,391.065796 222.956161,420.265686 
	C206.249756,446.660248 192.748596,474.572845 181.853775,503.865570 
	C175.092743,522.043823 169.839890,540.610168 165.398453,559.407043 
	C162.569656,571.379028 160.619690,583.567871 158.902145,595.791016 
	C156.099838,615.733887 154.709808,635.716431 154.941071,655.848999 
	C155.032715,663.828125 149.709427,670.831421 142.838593,671.901123 
	C136.545456,672.880615 128.933487,670.650879 125.779533,662.533813 
	C125.352684,661.435181 124.992653,660.446594 124.995323,659.286804 
	C125.029976,644.252991 125.479713,629.276550 126.771194,614.250977 
	C128.560928,593.428528 131.786484,572.868835 136.158554,552.526489 
	C140.411774,532.737183 146.263123,513.323303 153.265839,494.276978 
	C161.115723,472.926453 170.333633,452.184631 181.013397,432.133057 
	C193.559128,408.578033 208.156708,386.261444 224.521866,365.201385 
	C232.745590,354.618439 241.397842,344.325623 250.700394,334.582489 
	C256.870636,328.120026 262.761963,321.359497 269.310577,315.285706 
	C285.927032,299.874023 302.959686,285.018433 321.404449,271.690765 
	C345.349854,254.388504 370.486450,239.227570 397.084595,226.555237 
	C422.063354,214.654465 447.992828,205.212601 474.726868,197.834244 
	C492.364868,192.966309 510.206970,189.179718 528.191711,186.247864 
	C538.132629,184.627274 548.292358,183.797302 558.371582,182.789261 
	C577.716187,180.854599 597.063538,180.683090 616.412781,181.118774 
	C634.081665,181.516632 651.669800,183.262024 669.206909,185.831528 
	C686.523010,188.368637 703.631470,191.677139 720.575256,195.983032 
	C739.132690,200.699036 757.300598,206.646179 775.114990,213.608215 
	C791.158386,219.878098 806.924988,226.875061 822.074463,235.074646 
	C846.413452,248.248047 869.769775,262.938110 891.681335,279.983093 
	C910.286682,294.456299 928.013489,309.863892 944.215393,326.913177 
	C955.918884,339.228790 966.996643,352.132050 977.443176,365.619263 
	C990.249146,382.152527 1002.105774,399.285492 1012.602783,417.301880 
	C1025.741089,439.851562 1036.948853,463.345947 1046.175659,487.845245 
	C1053.455566,507.174774 1059.573120,526.788940 1064.356934,546.834656 
	C1067.591553,560.388000 1070.220581,574.060486 1072.101440,587.899536 
	C1073.956543,601.549072 1075.108521,615.225586 1076.253906,628.940979 
	C1077.100220,639.076477 1076.816406,649.141235 1076.896240,659.226318 
	C1076.965332,667.961548 1065.734619,674.251404 1057.452393,671.244019 
	C1049.454468,668.339783 1047.683594,662.084900 1047.053223,654.926697 
	C1046.747314,651.454163 1047.028198,647.932251 1046.995850,644.433105 
	C1046.807617,624.081482 1044.403076,603.976257 1041.143677,583.890564 
	C1036.992310,558.308655 1030.619629,533.363220 1022.021851,508.954468 
	C1015.161560,489.478210 1007.099670,470.492889 997.565918,452.188110 
	C984.639832,427.370087 969.379211,403.985016 952.267090,381.866302 
	C937.188721,362.376312 920.272583,344.452423 902.132507,327.840179 
	C879.375244,306.999512 854.549866,288.813354 828.010925,272.941101 
	C804.817871,259.070007 780.397888,247.887054 754.898560,238.024399 
z"/>
<path fill="#F4A6D7" opacity="1.000000" stroke="none" 
	d="
M401.000000,803.000000 
	C275.170166,802.999939 149.840332,802.967407 24.510612,803.084473 
	C17.336067,803.091187 11.611769,799.985168 9.253043,789.772888 
	C8.113590,784.839600 12.862284,777.507263 18.529736,774.731323 
	C20.533623,773.749756 22.391552,774.038635 24.293642,774.038208 
	C191.122284,773.997375 357.950958,773.987671 524.779541,774.082031 
	C528.539551,774.084167 531.386597,772.854980 534.002258,770.512817 
	C547.619324,758.319641 563.543274,751.265869 581.489746,747.879944 
	C605.675537,743.316833 628.440735,746.991516 650.134338,758.082336 
	C656.744690,761.461975 663.245483,765.257141 668.287964,770.882263 
	C670.488953,773.337646 672.866333,774.060730 676.067932,774.059448 
	C843.229919,773.992493 1010.391846,774.026184 1177.553833,773.912170 
	C1184.761353,773.907227 1190.607544,777.274353 1192.703979,787.320557 
	C1193.775024,792.453125 1189.121582,799.564148 1183.327637,802.306091 
	C1181.645142,803.102295 1180.128296,802.967712 1178.549927,802.968018 
	C1006.888062,803.001953 835.226257,802.991028 663.564392,803.060974 
	C659.971863,803.062439 657.254883,802.011169 654.872742,799.414917 
	C645.115051,788.779663 633.336914,781.461853 619.329346,777.717468 
	C601.272522,772.890686 584.218628,775.150879 567.617920,783.713806 
	C560.051208,787.616821 553.491211,792.512512 547.881104,798.728210 
	C544.847351,802.089417 541.283020,803.038818 536.994507,803.033630 
	C491.829742,802.979126 446.664856,802.999939 401.000000,803.000000 
z"/>
<path fill="#F4A6D7" opacity="1.000000" stroke="none" 
	d="
M343.002228,450.021179 
	C332.854370,462.492188 324.058655,475.525360 316.009247,489.063263 
	C302.770142,511.329468 292.259644,534.814392 284.740051,559.627075 
	C279.998627,575.272400 276.298370,591.110718 273.875671,607.316772 
	C271.390808,623.938782 269.918396,640.567688 269.970886,657.362305 
	C269.997650,665.923401 263.692596,671.975891 255.079666,671.999878 
	C246.400742,672.024048 240.087738,666.044006 240.018967,657.519836 
	C239.899292,642.683289 241.344330,627.962830 242.882812,613.210144 
	C245.685791,586.332031 252.170593,560.324158 261.176361,535.007629 
	C269.672913,511.122711 280.800598,488.420319 294.419037,466.894653 
	C306.834839,447.269928 320.837646,429.044983 336.445282,411.853027 
	C353.294342,393.293610 372.269836,377.414062 392.480804,362.736115 
	C409.844177,350.126190 428.196533,339.228302 447.585999,330.273254 
	C471.728302,319.123138 496.691803,310.196442 522.902893,304.813538 
	C537.757751,301.762817 552.605469,299.284882 567.703918,297.908356 
	C581.371277,296.662292 595.050903,295.407898 608.739746,296.106110 
	C628.970032,297.137939 649.126831,298.716888 669.108459,302.767700 
	C686.069702,306.206116 702.791443,310.259613 719.069519,316.023254 
	C740.687073,323.677490 761.505493,333.005341 781.420227,344.571289 
	C799.265625,354.935364 816.173096,366.562561 831.948059,379.691254 
	C847.130127,392.326538 861.267334,406.134399 874.090393,421.328308 
	C885.237183,434.535889 895.772034,448.139130 905.049744,462.664276 
	C918.800476,484.192169 930.191406,506.903076 939.158813,530.908203 
	C946.349792,550.157898 951.881714,569.835815 955.743347,589.913513 
	C957.826782,600.745422 959.416992,611.763000 960.168152,622.885498 
	C960.922729,634.058655 962.069885,645.196533 962.005493,656.414062 
	C961.951477,665.821045 956.079529,671.975952 947.075623,671.999878 
	C938.009216,672.023926 932.017822,665.888000 932.002991,656.522278 
	C931.952942,624.849121 927.309509,593.917664 918.319824,563.496277 
	C909.425049,533.396423 896.562195,505.296478 879.562683,478.945282 
	C870.181519,464.403381 859.735596,450.781586 848.345886,437.767517 
	C824.858826,410.931030 797.447571,389.048706 766.827698,370.895355 
	C745.059753,357.989990 722.026917,348.089111 697.973816,340.563049 
	C680.363770,335.052979 662.325012,331.344879 643.983093,328.882324 
	C624.924988,326.323608 605.810547,325.266815 586.680542,326.146027 
	C566.983643,327.051270 547.397949,329.606750 528.136963,334.052307 
	C501.337585,340.237885 475.570007,349.400635 451.141479,362.044525 
	C430.991547,372.473938 412.052429,384.776184 394.270264,398.995544 
	C380.920898,409.670197 368.810730,421.553101 356.909912,433.701080 
	C351.986664,438.726593 347.646667,444.323547 343.002228,450.021179 
z"/>
<path fill="#F4A6D7" opacity="1.000000" stroke="none" 
	d="
M794.002075,561.011414 
	C785.169128,544.522461 775.244568,529.277039 763.089844,515.375610 
	C746.695007,496.624603 727.653870,481.410034 706.175171,468.985016 
	C686.147705,457.399475 664.596741,449.841431 642.092529,445.246063 
	C632.396118,443.266083 622.357788,442.564758 612.408630,441.670715 
	C602.598511,440.789215 592.992676,441.606537 583.363037,442.156891 
	C570.589539,442.886871 558.004944,445.379608 545.610352,448.728058 
	C530.295532,452.865356 515.531189,458.344452 501.522430,465.838562 
	C486.908447,473.656372 473.331848,482.871521 460.682129,493.664856 
	C443.951599,507.940125 429.840820,524.397278 418.109192,542.838379 
	C405.297882,562.976501 396.383057,584.879456 391.018524,608.164795 
	C388.271057,620.090637 386.248749,632.094299 385.794373,644.410461 
	C385.607666,649.470520 385.256836,654.583069 384.954468,659.672119 
	C384.451691,668.133118 373.576660,674.090881 365.496918,671.260132 
	C356.669983,668.167725 354.262634,660.264404 355.275482,652.510437 
	C356.172089,645.646057 356.052673,638.766541 356.741547,631.922852 
	C358.700195,612.464172 362.828430,593.598083 369.379852,575.249573 
	C378.463501,549.809204 391.193726,526.391602 408.123810,505.216736 
	C415.740448,495.690399 423.485352,486.300873 432.479767,478.115295 
	C446.629578,465.238037 461.742706,453.560883 478.478882,444.134583 
	C494.977203,434.842285 512.211670,427.313263 530.385010,421.880188 
	C545.494568,417.362946 560.820740,414.423920 576.538330,412.847626 
	C590.987671,411.398529 605.467590,411.396088 619.798889,412.255127 
	C644.575745,413.740295 668.546021,419.564911 691.730042,428.832855 
	C708.142212,435.393707 723.649170,443.573212 738.326721,453.189056 
	C747.272522,459.049866 755.588196,465.965302 763.725830,473.042053 
	C771.958374,480.201477 779.500183,487.959229 786.622803,496.157379 
	C796.105286,507.071716 804.637329,518.724915 811.971130,531.172791 
	C822.237122,548.597595 830.405090,566.959900 836.178650,586.414246 
	C840.575989,601.231140 843.339294,616.260254 845.248047,631.591125 
	C846.227539,639.458069 845.217651,647.318359 846.815125,655.174377 
	C848.263306,662.296204 842.096985,670.521118 835.075317,671.851257 
	C829.046631,672.993225 820.828613,670.855713 817.686401,662.297668 
	C817.271240,661.167053 817.036499,660.142395 817.011292,659.023926 
	C816.591492,640.369873 814.796875,621.869812 809.949646,603.807739 
	C806.023193,589.176697 801.263855,574.811829 794.002075,561.011414 
z"/>
<path fill="#F4A6D7" opacity="1.000000" stroke="none" 
	d="
M500.999573,647.249390 
	C500.843506,654.188904 501.819946,660.784851 497.230743,666.489441 
	C493.427551,671.216980 487.168518,672.871399 482.590393,671.806030 
	C476.334015,670.350037 471.206390,664.966064 471.029816,659.497803 
	C470.223175,634.515015 476.510559,611.430298 489.400940,590.005798 
	C495.501129,579.866943 502.462769,570.404724 511.151276,562.477295 
	C529.005798,546.186707 549.557068,534.980225 573.461487,529.835083 
	C585.855774,527.167358 598.276245,526.328308 610.713623,527.149719 
	C631.140747,528.498535 650.173096,534.812134 667.875183,545.273254 
	C677.918213,551.208191 687.035461,558.309387 694.996460,566.670471 
	C707.383606,579.680054 716.839844,594.666321 723.055420,611.661438 
	C728.538269,626.652954 731.467041,642.000854 731.023010,657.988770 
	C730.819214,665.324219 724.937622,671.412415 717.454163,672.029907 
	C710.483826,672.604980 702.718262,667.541626 701.914795,659.929871 
	C700.708069,648.497009 700.428101,636.901001 696.456421,625.877136 
	C689.806091,607.418396 679.287415,591.893005 663.985352,579.297241 
	C650.632507,568.305908 635.527771,560.969238 618.889587,558.298645 
	C589.359009,553.558655 562.090149,559.759827 538.330688,579.060730 
	C522.981018,591.529968 512.204346,606.942993 505.779755,625.569458 
	C503.395294,632.482605 502.255615,639.634888 500.999573,647.249390 
z"/>
</svg>