<?xml version="1.0" standalone="no"?>
<!DOCTYPE svg PUBLIC "-//W3C//DTD SVG 1.0//EN" "http://www.w3.org/TR/2001/REC-SVG-20010904/DTD/svg10.dtd">
<svg xmlns="http://www.w3.org/2000/svg" xmlns:xlink="http://www.w3.org/1999/xlink" id="body_1" width="152" height="95">

<defs>
        <clipPath  id="1">

            <path clip-rule="evenodd" d="M0 0L114 0L114 71L0 71z" />        </clipPath>
            <clipPath  id="2">

                <path clip-rule="evenodd" d="M0 0L114 0L114 71L0 71z" />            </clipPath>
            <clipPath  id="3">

                <path clip-rule="evenodd" d="M0 0L114 0L114 71L0 71z" />            </clipPath>
            <clipPath  id="4">

                <path clip-rule="evenodd" d="M0 0L114 0L114 71L0 71z" />            </clipPath>
            <clipPath  id="5">

                <path clip-rule="evenodd" d="M0 0L114 0L114 71L0 71z" />            </clipPath>
            <clipPath  id="6">

                <path clip-rule="evenodd" d="M0 0L114 0L114 71L0 71z" />            </clipPath>
            <clipPath  id="7">

                <path clip-rule="evenodd" d="M0 0L114 0L114 71L0 71z" />            </clipPath>
</defs>

<g transform="matrix(1.3333334 0 0 1.3333334 0 0)">
    <path d="M0 0L114 0L114 71.25L0 71.25z" stroke="none" fill="#FFFFFF" fill-rule="evenodd" />
	<g transform="matrix(1 0 0 -1.0035211 -0 71.25)" clip-path="url(#1)" >
        <path d="M0 0L114 0L114 71L0 71z" stroke="none" fill="none" />
        <path clip-path="url(#2)"  d="M2.758 14.457001C 2.758 13.683998 2.152 13.077999 1.379 13.077999C 0.605 13.077999 0 13.683998 0 14.457001C 0 45.625 25.375 71 56.543 71C 87.711 71 113.086 45.625 113.086 14.457001C 113.086 13.683998 112.48 13.077999 111.707 13.077999C 110.938 13.077999 110.328 13.683998 110.328 14.457001C 110.328 44.105 86.195 68.242 56.543 68.242C 26.895 68.242 2.758 44.105 2.758 14.457001zz" stroke="none" fill="#FFC600" fill-rule="evenodd" />
        <path clip-path="url(#3)"  d="M100.676 13.077999C 101.449 13.077999 102.055 13.683998 102.055 14.457001C 102.055 39.555 81.645 59.969 56.543 59.969C 31.445 59.969 11.031 39.555 11.031 14.457001C 11.031 13.683998 11.641 13.077999 12.414 13.077999C 13.184 13.077999 13.789 13.683998 13.789 14.457001C 13.789 38.039 32.961 57.211 56.543 57.211C 80.125 57.211 99.297 38.039 99.297 14.457001C 99.297 13.683998 99.902 13.077999 100.676 13.077999zz" stroke="none" fill="#F4A5D6" fill-rule="evenodd" />
        <path clip-path="url(#4)"  d="M91.02 14.457001C 91.02 13.683998 90.414 13.077999 89.641 13.077999C 88.871 13.077999 88.262 13.683998 88.262 14.457001C 88.262 31.945 74.031 46.176003 56.543 46.176003C 39.055 46.176003 24.824 31.945 24.824 14.457001C 24.824 13.683998 24.219 13.077999 23.445 13.077999C 22.672 13.077999 22.066 13.683998 22.066 14.457001C 22.066 33.461 37.539 48.934 56.543 48.934C 75.547 48.934 91.02 33.461 91.02 14.457001zz" stroke="none" fill="#F4A5D6" fill-rule="evenodd" />
        <path clip-path="url(#5)"  d="M77.23 14.457001C 77.23 13.683998 77.836 13.077999 78.609 13.077999C 79.383 13.077999 79.988 13.683998 79.988 14.457001C 79.988 27.395 69.48 37.902 56.543 37.902C 43.605 37.902 33.098 27.395 33.098 14.457001C 33.098 13.683998 33.707 13.077999 34.477 13.077999C 35.25 13.077999 35.855 13.683998 35.855 14.457001C 35.855 25.875 45.125 35.145 56.543 35.145C 67.961 35.145 77.23 25.848 77.23 14.457001zz" stroke="none" fill="#F4A5D6" fill-rule="evenodd" />
        <path clip-path="url(#6)"  d="M44.133 14.457001C 44.133 13.683998 44.738 13.077999 45.512 13.077999C 46.281 13.077999 46.891 13.683998 46.891 14.457001C 46.891 19.780998 51.219 24.109001 56.543 24.109001C 61.867 24.109001 66.195 19.780998 66.195 14.457001C 66.195 13.683998 66.805 13.077999 67.578 13.077999C 68.348 13.077999 68.957 13.683998 68.957 14.457001C 68.957 21.297 63.383 26.867 56.543 26.867C 49.703 26.867 44.133 21.297 44.133 14.457001zz" stroke="none" fill="#F4A5D6" fill-rule="evenodd" />
        <path clip-path="url(#7)"  d="M62.668 0.5C 62.281 0.5 61.895 0.66400146 61.645 0.96900177C 58.973 3.9489975 54.117 3.9489975 51.441 0.96900177C 51.164 0.66400146 50.805 0.5 50.422 0.5L50.422 0.5L1.379 0.5C 0.605 0.5 0 1.1050034 0 1.8789978C 0 2.6520004 0.605 3.2580032 1.379 3.2580032L1.379 3.2580032L49.812 3.2580032C 53.426 6.7890015 59.633 6.7890015 63.246 3.2580032L63.246 3.2580032L111.707 3.2580032C 112.48 3.2580032 113.086 2.6520004 113.086 1.8789978C 113.086 1.1050034 112.48 0.5 111.707 0.5zz" stroke="none" fill="#F4A5D6" fill-rule="evenodd" />
        <path d="" stroke="none" fill="none" />
        <path d="" stroke="none" fill="none" />
        <path d="M0 0L114 0L114 71L0 71z" stroke="none" fill="none" />
	</g>
</g>
</svg>